<svg width="126" height="16" viewBox="0 0 126 16" fill="none" xmlns="http://www.w3.org/2000/svg">
<path d="M5.78 15.24C4.68667 15.24 3.7 14.9733 2.82 14.44C1.95333 13.8933 1.27333 13.1133 0.78 12.1C0.286667 11.0867 0.04 9.86667 0.04 8.44C0.04 7.38667 0.18 6.44 0.46 5.6C0.753333 4.76 1.16667 4.04667 1.7 3.46C2.23333 2.86 2.84667 2.40667 3.54 2.1C4.24667 1.79333 5.02 1.64 5.86 1.64C6.64667 1.64 7.34667 1.8 7.96 2.12C8.58667 2.44 9.08667 2.82 9.46 3.26L8.56 4.28C8.21333 3.90667 7.81333 3.62 7.36 3.42C6.92 3.20667 6.42667 3.1 5.88 3.1C5.06667 3.1 4.34667 3.32 3.72 3.76C3.10667 4.18667 2.62667 4.8 2.28 5.6C1.93333 6.38667 1.76 7.32 1.76 8.4C1.76 9.50667 1.92667 10.46 2.26 11.26C2.59333 12.06 3.07333 12.68 3.7 13.12C4.32667 13.5467 5.06 13.76 5.9 13.76C6.51333 13.76 7.06 13.6467 7.54 13.42C8.03333 13.18 8.48 12.8333 8.88 12.38L9.76 13.36C9.24 13.96 8.66 14.4267 8.02 14.76C7.38 15.08 6.63333 15.24 5.78 15.24ZM15.8458 15.24C15.0591 15.24 14.3191 15.04 13.6258 14.64C12.9458 14.24 12.3924 13.66 11.9658 12.9C11.5524 12.14 11.3458 11.2267 11.3458 10.16C11.3458 9.06667 11.5524 8.14 11.9658 7.38C12.3924 6.62 12.9458 6.04 13.6258 5.64C14.3191 5.24 15.0591 5.04 15.8458 5.04C16.6458 5.04 17.3858 5.24 18.0658 5.64C18.7458 6.04 19.2924 6.62 19.7058 7.38C20.1324 8.14 20.3458 9.06667 20.3458 10.16C20.3458 11.2267 20.1324 12.14 19.7058 12.9C19.2924 13.66 18.7458 14.24 18.0658 14.64C17.3858 15.04 16.6458 15.24 15.8458 15.24ZM15.8458 13.88C16.4058 13.88 16.8991 13.7267 17.3258 13.42C17.7524 13.1 18.0791 12.66 18.3058 12.1C18.5324 11.54 18.6458 10.8933 18.6458 10.16C18.6458 9.41333 18.5324 8.76 18.3058 8.2C18.0791 7.62667 17.7524 7.18667 17.3258 6.88C16.8991 6.56 16.4058 6.4 15.8458 6.4C15.2858 6.4 14.7924 6.56 14.3658 6.88C13.9524 7.18667 13.6258 7.62667 13.3858 8.2C13.1591 8.76 13.0458 9.41333 13.0458 10.16C13.0458 10.8933 13.1591 11.54 13.3858 12.1C13.6258 12.66 13.9524 13.1 14.3658 13.42C14.7924 13.7267 15.2858 13.88 15.8458 13.88ZM22.9056 15V5.28H24.2656L24.4056 6.68H24.4656C24.8923 6.22667 25.3523 5.84 25.8456 5.52C26.3523 5.2 26.899 5.04 27.4856 5.04C28.2323 5.04 28.8123 5.20667 29.2256 5.54C29.6523 5.87333 29.9656 6.32667 30.1656 6.9C30.6723 6.34 31.1856 5.89333 31.7056 5.56C32.2256 5.21333 32.779 5.04 33.3656 5.04C34.379 5.04 35.1256 5.36667 35.6056 6.02C36.0856 6.66 36.3256 7.6 36.3256 8.84V15H34.6856V9.06C34.6856 8.14 34.539 7.48 34.2456 7.08C33.9523 6.66667 33.499 6.46 32.8856 6.46C32.499 6.46 32.1056 6.58667 31.7056 6.84C31.319 7.08 30.899 7.45333 30.4456 7.96V15H28.8056V9.06C28.8056 8.14 28.659 7.48 28.3656 7.08C28.0723 6.66667 27.6123 6.46 26.9856 6.46C26.2523 6.46 25.439 6.96 24.5456 7.96V15H22.9056ZM39.4877 15V5.28H40.8477L40.9877 6.68H41.0477C41.4743 6.22667 41.9343 5.84 42.4277 5.52C42.9343 5.2 43.481 5.04 44.0677 5.04C44.8143 5.04 45.3943 5.20667 45.8077 5.54C46.2343 5.87333 46.5477 6.32667 46.7477 6.9C47.2543 6.34 47.7677 5.89333 48.2877 5.56C48.8077 5.21333 49.361 5.04 49.9477 5.04C50.961 5.04 51.7077 5.36667 52.1877 6.02C52.6677 6.66 52.9077 7.6 52.9077 8.84V15H51.2677V9.06C51.2677 8.14 51.121 7.48 50.8277 7.08C50.5343 6.66667 50.081 6.46 49.4677 6.46C49.081 6.46 48.6877 6.58667 48.2877 6.84C47.901 7.08 47.481 7.45333 47.0277 7.96V15H45.3877V9.06C45.3877 8.14 45.241 7.48 44.9477 7.08C44.6543 6.66667 44.1943 6.46 43.5677 6.46C42.8343 6.46 42.021 6.96 41.1277 7.96V15H39.4877ZM58.9097 15.24C57.883 15.24 57.1297 14.92 56.6497 14.28C56.183 13.6267 55.9497 12.68 55.9497 11.44V5.28H57.5897V11.22C57.5897 12.1267 57.7297 12.7867 58.0097 13.2C58.303 13.6 58.7697 13.8 59.4097 13.8C59.903 13.8 60.343 13.6733 60.7297 13.42C61.1297 13.1533 61.563 12.74 62.0297 12.18V5.28H63.6697V15H62.3097L62.1697 13.48H62.1097C61.6697 14.0133 61.1897 14.44 60.6697 14.76C60.163 15.08 59.5764 15.24 58.9097 15.24ZM66.9486 15V5.28H68.3086L68.4486 6.68H68.5086C68.9753 6.21333 69.4686 5.82667 69.9886 5.52C70.5086 5.2 71.1019 5.04 71.7686 5.04C72.7953 5.04 73.5419 5.36667 74.0086 6.02C74.4886 6.66 74.7286 7.6 74.7286 8.84V15H73.0886V9.06C73.0886 8.14 72.9419 7.48 72.6486 7.08C72.3686 6.66667 71.9019 6.46 71.2486 6.46C70.7553 6.46 70.3086 6.58667 69.9086 6.84C69.5219 7.09333 69.0819 7.46667 68.5886 7.96V15H66.9486ZM77.8861 15V5.28H79.5261V15H77.8861ZM78.7061 3.28C78.3861 3.28 78.1194 3.18 77.9061 2.98C77.7061 2.78 77.6061 2.52 77.6061 2.2C77.6061 1.88 77.7061 1.62 77.9061 1.42C78.1194 1.22 78.3861 1.12 78.7061 1.12C79.0261 1.12 79.2861 1.22 79.4861 1.42C79.6994 1.62 79.8061 1.88 79.8061 2.2C79.8061 2.52 79.6994 2.78 79.4861 2.98C79.2861 3.18 79.0261 3.28 78.7061 3.28ZM86.668 15.24C85.8013 15.24 85.0213 15.04 84.328 14.64C83.6346 14.24 83.088 13.66 82.688 12.9C82.288 12.14 82.088 11.2267 82.088 10.16C82.088 9.06667 82.3013 8.14 82.728 7.38C83.168 6.62 83.7413 6.04 84.448 5.64C85.168 5.24 85.9413 5.04 86.768 5.04C87.408 5.04 87.9546 5.14667 88.408 5.36C88.8746 5.57333 89.2746 5.84667 89.608 6.18L88.788 7.2C88.548 6.96 88.2613 6.77333 87.928 6.64C87.608 6.49333 87.2413 6.42 86.828 6.42C86.2546 6.42 85.7346 6.58 85.268 6.9C84.8146 7.20667 84.4546 7.64 84.188 8.2C83.9213 8.76 83.788 9.41333 83.788 10.16C83.788 10.8933 83.9146 11.54 84.168 12.1C84.4213 12.66 84.7746 13.1 85.228 13.42C85.6813 13.7267 86.208 13.88 86.808 13.88C87.2613 13.88 87.6813 13.7933 88.068 13.62C88.4546 13.4467 88.788 13.2267 89.068 12.96L89.788 13.96C89.3746 14.3467 88.908 14.66 88.388 14.9C87.868 15.1267 87.2946 15.24 86.668 15.24ZM93.9738 15.24C93.4404 15.24 92.9538 15.1333 92.5138 14.92C92.0871 14.6933 91.7471 14.38 91.4938 13.98C91.2404 13.5667 91.1138 13.0667 91.1138 12.48C91.1138 11.3867 91.5938 10.56 92.5538 10C93.5138 9.44 95.0338 9.04667 97.1138 8.82C97.1004 8.42 97.0338 8.03333 96.9138 7.66C96.8071 7.28667 96.6071 6.98667 96.3138 6.76C96.0204 6.53333 95.6138 6.42 95.0938 6.42C94.5338 6.42 94.0071 6.52667 93.5138 6.74C93.0204 6.94 92.5804 7.16667 92.1938 7.42L91.5538 6.3C91.8471 6.1 92.1938 5.90667 92.5938 5.72C92.9938 5.52 93.4271 5.36 93.8938 5.24C94.3604 5.10667 94.8538 5.04 95.3737 5.04C96.1604 5.04 96.8004 5.20667 97.2938 5.54C97.8004 5.86 98.1671 6.32 98.3938 6.92C98.6338 7.52 98.7538 8.22667 98.7538 9.04V15H97.3938L97.2538 13.84H97.1938C96.7271 14.2267 96.2271 14.56 95.6938 14.84C95.1604 15.1067 94.5871 15.24 93.9738 15.24ZM94.4338 13.88C94.9138 13.88 95.3604 13.7733 95.7738 13.56C96.2004 13.3467 96.6471 13.0333 97.1138 12.62V10C96.0204 10.1333 95.1538 10.3067 94.5138 10.52C93.8871 10.72 93.4338 10.9733 93.1538 11.28C92.8738 11.5867 92.7337 11.9533 92.7337 12.38C92.7337 12.9133 92.9004 13.3 93.2338 13.54C93.5671 13.7667 93.9671 13.88 94.4338 13.88ZM106.112 15.24C105.659 15.24 105.192 15.1333 104.712 14.92C104.232 14.6933 103.772 14.3867 103.332 14H103.272L103.132 15H101.812V0.76H103.452V4.64L103.412 6.4C103.852 6.01333 104.332 5.69333 104.852 5.44C105.385 5.17333 105.919 5.04 106.452 5.04C107.292 5.04 107.999 5.24667 108.572 5.66C109.145 6.06 109.579 6.63333 109.872 7.38C110.165 8.11333 110.312 8.98 110.312 9.98C110.312 11.0867 110.112 12.0333 109.712 12.82C109.325 13.6067 108.812 14.2067 108.172 14.62C107.532 15.0333 106.845 15.24 106.112 15.24ZM105.832 13.86C106.365 13.86 106.839 13.7067 107.252 13.4C107.679 13.0933 108.012 12.6533 108.252 12.08C108.492 11.4933 108.612 10.8 108.612 10C108.612 9.29333 108.525 8.67333 108.352 8.14C108.179 7.59333 107.905 7.17333 107.532 6.88C107.159 6.57333 106.665 6.42 106.052 6.42C105.652 6.42 105.232 6.53333 104.792 6.76C104.365 6.97333 103.919 7.3 103.452 7.74V12.84C103.879 13.2133 104.299 13.48 104.712 13.64C105.139 13.7867 105.512 13.86 105.832 13.86ZM114.607 15.18C114.193 15.18 113.86 15.1 113.607 14.94C113.353 14.7667 113.167 14.52 113.047 14.2C112.927 13.8667 112.867 13.4667 112.867 13V0.76H114.507V13.12C114.507 13.3867 114.553 13.5733 114.647 13.68C114.74 13.7733 114.853 13.82 114.987 13.82C115.04 13.82 115.087 13.82 115.127 13.82C115.18 13.8067 115.247 13.7933 115.327 13.78L115.567 15.02C115.447 15.06 115.307 15.0933 115.147 15.12C115 15.16 114.82 15.18 114.607 15.18ZM121.904 15.24C121.038 15.24 120.244 15.04 119.524 14.64C118.818 14.2267 118.258 13.6467 117.844 12.9C117.431 12.14 117.224 11.22 117.224 10.14C117.224 9.08667 117.438 8.18 117.864 7.42C118.291 6.66 118.838 6.07333 119.504 5.66C120.171 5.24667 120.878 5.04 121.624 5.04C122.451 5.04 123.151 5.23333 123.724 5.62C124.311 5.99333 124.751 6.52 125.044 7.2C125.338 7.88 125.484 8.68 125.484 9.6C125.484 9.77333 125.478 9.94 125.464 10.1C125.464 10.26 125.444 10.42 125.404 10.58H118.404V9.28H124.004C124.004 8.34667 123.798 7.63333 123.384 7.14C122.984 6.63333 122.404 6.38 121.644 6.38C121.204 6.38 120.771 6.50667 120.344 6.76C119.918 7 119.564 7.39333 119.284 7.94C119.018 8.48667 118.884 9.21333 118.884 10.12C118.884 10.9467 119.024 11.64 119.304 12.2C119.598 12.76 119.991 13.1867 120.484 13.48C120.978 13.76 121.518 13.9 122.104 13.9C122.571 13.9 123.004 13.8333 123.404 13.7C123.818 13.5667 124.191 13.3867 124.524 13.16L125.124 14.24C124.698 14.5333 124.218 14.7733 123.684 14.96C123.164 15.1467 122.571 15.24 121.904 15.24Z" fill="white"/>
</svg>
