<svg width="21" height="18" viewBox="0 0 21 18" fill="none" xmlns="http://www.w3.org/2000/svg">
<path d="M20 14C19.7166 14 19.479 13.904 19.287 13.712C19.095 13.52 18.9993 13.2826 19 13V7.09998L10.975 11.475C10.825 11.5583 10.671 11.621 10.513 11.663C10.355 11.705 10.184 11.7256 9.99996 11.725C9.81662 11.725 9.64563 11.7043 9.48696 11.663C9.32829 11.6216 9.17429 11.559 9.02496 11.475L0.599958 6.87498C0.433292 6.79165 0.303958 6.67065 0.211958 6.51198C0.119958 6.35331 0.0742917 6.18265 0.0749584 5.99998C0.0749584 5.81665 0.120958 5.64565 0.212958 5.48698C0.304958 5.32831 0.433958 5.20765 0.599958 5.12498L9.04996 0.524979C9.19996 0.441646 9.35429 0.378979 9.51296 0.336979C9.67162 0.294979 9.83396 0.274312 9.99996 0.274979C10.1666 0.274979 10.3293 0.295979 10.488 0.337979C10.6466 0.379979 10.8006 0.442312 10.95 0.524979L20.475 5.72498C20.6416 5.80831 20.771 5.92931 20.863 6.08798C20.955 6.24665 21.0006 6.41731 21 6.59998V13C21 13.2833 20.904 13.521 20.712 13.713C20.52 13.905 20.2826 14.0006 20 14ZM9.99996 17.725C9.83329 17.725 9.67062 17.704 9.51196 17.662C9.35329 17.62 9.19929 17.5576 9.04996 17.475L4.04996 14.775C3.71663 14.5916 3.45829 14.346 3.27496 14.038C3.09162 13.73 2.99996 13.384 2.99996 13V9.19998L8.67496 12.275C8.89162 12.3916 9.10829 12.496 9.32496 12.588C9.54162 12.68 9.76662 12.7256 9.99996 12.725C10.2333 12.725 10.4626 12.675 10.688 12.575C10.9133 12.475 11.134 12.3666 11.35 12.25L17 9.19998V13C17 13.3833 16.9083 13.7293 16.725 14.038C16.5416 14.3466 16.2833 14.5923 15.95 14.775L10.95 17.475C10.8 17.5583 10.646 17.621 10.488 17.663C10.33 17.705 10.1673 17.7256 9.99996 17.725Z" fill="white"/>
</svg>
