<svg width="19" height="19" viewBox="0 0 19 19" fill="none" xmlns="http://www.w3.org/2000/svg">
<path fill-rule="evenodd" clip-rule="evenodd" d="M18.506 0.536022C18.6254 0.655483 18.7126 0.803244 18.7595 0.965518C18.8064 1.12779 18.8114 1.29929 18.774 1.46402L18.457 2.86602C18.0814 4.52298 17.2445 6.03978 16.043 7.24102L11.399 11.885C12.426 13.157 12.759 14.365 12.499 15.517C12.228 16.717 11.339 17.603 10.787 18.154L10.727 18.214C10.6195 18.3213 10.489 18.4028 10.3454 18.4521C10.2017 18.5015 10.0487 18.5175 9.89796 18.4989C9.74721 18.4803 9.60268 18.4276 9.47534 18.3448C9.34799 18.262 9.24119 18.1513 9.16302 18.021L7.17002 14.696C7.12803 14.6261 7.07766 14.5617 7.02002 14.504L4.45002 11.936L3.69002 11.48L7.14902 7.63702C7.15133 7.63872 7.15366 7.64039 7.15602 7.64202L11.8 3.00002C13.0015 1.79837 14.5187 0.961435 16.176 0.586022L17.578 0.268022C17.7428 0.230811 17.9144 0.235967 18.0767 0.283007C18.2389 0.330047 18.3867 0.416438 18.506 0.536022ZM6.32202 7.06202C5.35302 6.49702 4.42202 6.34002 3.52502 6.54202C2.32502 6.81402 1.43902 7.70202 0.888017 8.25502L0.828017 8.31402C0.720692 8.4215 0.639262 8.55202 0.589907 8.69567C0.540553 8.83932 0.52457 8.99233 0.543173 9.14308C0.561775 9.29383 0.614474 9.43836 0.69727 9.5657C0.780066 9.69305 0.890783 9.79985 1.02102 9.87802L2.81702 10.956L6.32202 7.06202Z" fill="white"/>
</svg>
